<?xml version="1.0" standalone="no"?>
<!DOCTYPE svg PUBLIC "-//W3C//DTD SVG 20010904//EN"
 "http://www.w3.org/TR/2001/REC-SVG-20010904/DTD/svg10.dtd">
<svg version="1.0" xmlns="http://www.w3.org/2000/svg"
 width="1280.000000pt" height="833.000000pt" viewBox="0 0 1280.000000 833.000000"
 preserveAspectRatio="xMidYMid meet">
<metadata>
Created by potrace 1.15, written by Peter Selinger 2001-2017
</metadata>
<g transform="translate(0.000000,833.000000) scale(0.100000,-0.100000)"
fill="#000000" stroke="none">
<path d="M10346 8280 c-76 -50 -89 -66 -61 -76 32 -13 12 -47 -87 -150 -127
-130 -198 -224 -278 -365 -34 -60 -63 -109 -65 -109 -4 0 32 100 60 168 27 63
8 45 -25 -25 -53 -113 -161 -375 -156 -380 3 -3 14 14 26 37 41 81 29 32 -26
-106 -31 -76 -92 -245 -135 -374 -43 -129 -79 -224 -80 -210 l0 25 -10 -25
c-6 -14 -40 -144 -75 -290 -35 -146 -67 -271 -69 -278 -3 -7 0 -10 5 -7 5 3
19 38 31 76 12 39 23 68 26 65 2 -2 -7 -57 -22 -122 -33 -145 -87 -497 -110
-704 -9 -85 -20 -177 -25 -205 -7 -46 -8 -43 -10 45 l-3 95 -7 -95 c-13 -167
-20 -500 -10 -451 5 25 11 48 12 53 2 4 3 -115 4 -265 1 -336 28 -678 70 -917
12 -65 -7 -23 -37 81 -22 78 -28 92 -23 54 6 -60 103 -604 111 -625 12 -34 12
12 0 108 -7 56 -10 102 -7 102 3 0 14 -42 24 -92 37 -185 108 -447 181 -665
71 -211 84 -255 68 -240 -3 4 -12 -1 -19 -11 -11 -15 -40 -18 -231 -24 -389
-12 -841 -9 -1025 7 -95 8 -226 16 -291 18 l-117 3 -40 39 c-22 21 -42 36 -46
33 -7 -8 20 -61 40 -77 38 -31 38 -31 -234 -12 -167 13 -164 11 -141 69 11 26
63 137 118 247 54 110 129 266 167 348 42 90 74 147 83 147 22 0 10 -53 -63
-294 -35 -115 -62 -211 -59 -214 5 -5 13 14 162 353 58 132 161 361 230 508
69 147 124 270 121 272 -2 2 -49 -66 -103 -152 -216 -339 -241 -339 -124 -2
98 283 140 425 214 714 79 309 123 530 170 841 37 255 49 304 70 304 20 0 23
-19 30 -196 4 -89 11 -168 16 -175 6 -10 9 -3 9 21 0 54 46 461 77 682 23 164
25 199 14 212 -7 9 -21 16 -29 16 -12 0 -13 -3 -4 -12 7 -7 12 -24 12 -39 0
-41 -69 -271 -87 -291 -16 -18 -42 -24 -44 -10 0 4 -2 135 -4 292 -4 400 -24
555 -124 970 -49 204 -54 247 -38 283 l12 28 119 -136 c65 -75 120 -134 123
-131 3 2 -24 51 -60 108 -75 120 -137 241 -208 406 -27 64 -55 122 -61 127 -7
7 -9 7 -5 0 3 -6 15 -63 27 -128 21 -117 21 -119 2 -149 l-19 -30 -68 109
c-141 227 -270 364 -434 463 -72 43 -91 59 -91 77 0 29 33 50 93 58 26 4 47
11 47 15 0 11 -123 39 -203 46 l-62 7 38 -36 c67 -63 50 -84 -84 -103 -185
-25 -313 -79 -449 -189 -44 -36 -85 -65 -90 -65 -14 0 20 64 72 135 64 87 66
97 8 35 -92 -97 -250 -277 -250 -285 0 -3 20 10 44 29 84 69 77 33 -20 -103
-175 -244 -301 -492 -385 -756 -34 -108 -34 -60 0 69 30 110 36 145 26 135 -4
-4 -94 -294 -144 -465 -30 -102 -25 -112 10 -21 17 43 33 76 35 74 3 -3 -13
-74 -35 -158 -83 -322 -162 -764 -177 -987 -4 -56 -11 -105 -17 -109 -9 -5 -4
122 9 237 4 32 3 41 -5 30 -5 -8 -13 -54 -17 -102 -3 -48 -10 -88 -14 -88 -4
0 -45 92 -90 205 -46 113 -84 204 -86 203 -1 -2 1 -39 4 -83 9 -107 6 -125
-22 -125 -27 0 -41 15 -91 98 -103 173 -265 355 -431 483 -58 45 -104 88 -108
101 -15 59 -10 59 88 4 l94 -53 -23 46 c-13 25 -51 132 -85 238 -40 124 -71
205 -90 230 -15 21 -78 92 -140 158 -68 73 -146 172 -200 253 -98 146 -204
351 -219 422 -45 213 -79 324 -65 213 11 -86 0 -93 -47 -34 -46 57 -66 71
-103 71 -30 0 -33 15 -11 67 20 47 19 53 -6 23 -33 -41 -59 -97 -59 -127 0
-16 -24 -77 -54 -137 -46 -91 -87 -203 -168 -460 l-13 -40 -80 -13 c-44 -7
-100 -20 -125 -28 l-45 -14 70 6 c39 4 88 7 110 8 39 0 40 -1 43 -36 3 -39
-51 -303 -73 -356 -8 -18 -18 -33 -22 -33 -6 0 -401 -34 -488 -41 -11 -1 24
-5 77 -8 87 -5 119 -13 107 -25 -3 -3 -117 -19 -254 -36 -398 -49 -593 -90
-918 -194 -98 -32 -185 -56 -195 -54 -20 4 57 49 170 99 43 19 74 35 70 37
-15 5 -618 -234 -627 -248 -3 -4 43 8 102 26 58 19 113 34 121 34 33 0 -12
-29 -116 -75 -406 -181 -699 -351 -1031 -599 -79 -59 -146 -104 -150 -100 -3
3 46 56 109 116 126 121 107 108 -135 -87 -239 -193 -354 -289 -350 -293 2 -2
54 32 115 77 62 45 117 81 122 81 6 0 -82 -94 -194 -209 -232 -236 -360 -379
-506 -565 l-102 -128 0 -81 c0 -47 4 -77 9 -72 18 20 210 255 331 405 138 171
515 560 543 560 33 0 16 -29 -80 -137 -54 -59 -89 -101 -78 -93 36 27 489 408
530 446 44 40 52 44 -115 -58 -52 -32 -98 -58 -102 -58 -4 0 -8 7 -8 15 0 53
643 458 1044 656 128 64 186 82 186 60 0 -11 -83 -62 -198 -121 -45 -23 -81
-44 -79 -46 4 -5 213 76 362 140 114 48 339 165 319 166 -7 0 -58 -20 -115
-45 -103 -44 -149 -55 -149 -34 0 15 97 57 212 90 467 135 1083 248 1066 197
-7 -22 -49 -36 -156 -54 -177 -30 -137 -34 143 -15 l110 8 88 -38 c124 -52
139 -63 131 -97 -4 -15 -65 -236 -135 -491 -71 -256 -125 -467 -120 -470 5 -4
-8 -78 -30 -166 -55 -225 -155 -726 -174 -875 -9 -69 -21 -129 -27 -135 -7 -7
-8 -4 -5 10 7 24 18 237 12 215 -8 -25 -85 -651 -84 -679 1 -14 10 10 20 54
l19 80 -5 -64 c-3 -35 -9 -113 -15 -175 -10 -114 -30 -664 -30 -838 l0 -98
-122 0 c-76 1 -165 8 -233 20 -60 11 -204 24 -320 30 -115 6 -255 17 -310 25
-55 8 -153 17 -219 20 -83 5 -147 15 -217 34 -55 16 -102 31 -105 34 -3 3 4
36 15 75 12 38 21 77 21 86 0 35 -26 8 -48 -50 -13 -32 -27 -70 -33 -83 -10
-25 -3 -25 -134 -2 -122 22 -135 23 -135 14 0 -6 10 -18 23 -26 21 -15 20 -16
-33 -16 -64 -1 -249 23 -300 39 -61 18 -161 31 -297 39 l-132 8 -66 43 c-94
61 -140 64 -262 16 -51 -20 -103 -36 -117 -36 -22 0 -23 3 -19 43 5 41 4 42
-32 53 -42 13 -55 5 -87 -55 -22 -40 -61 -41 -66 -1 -11 102 -23 112 -67 54
-22 -29 -32 -35 -58 -32 -26 2 -32 7 -32 27 -1 40 -23 36 -31 -5 -9 -48 4
-436 15 -447 14 -14 23 10 28 74 9 90 40 108 218 129 50 5 123 21 163 35 86
30 102 31 71 6 -42 -35 3 -38 95 -8 79 26 82 27 106 9 14 -10 34 -37 45 -59
l20 -41 173 2 c202 2 212 8 99 55 -54 23 -61 41 -17 41 61 0 228 -22 345 -45
66 -13 156 -29 199 -35 44 -7 90 -19 103 -27 17 -12 38 -14 91 -8 67 7 70 6
91 -20 11 -15 21 -34 21 -41 0 -30 42 -124 56 -124 17 0 17 8 0 79 -8 31 -17
69 -21 85 l-6 29 163 -7 c90 -3 186 -11 213 -16 28 -6 118 -15 200 -20 83 -6
209 -17 280 -25 72 -9 218 -22 325 -29 120 -9 196 -19 198 -26 8 -23 80 -106
104 -119 29 -15 29 -14 54 -237 l16 -150 -61 -84 c-33 -46 -61 -91 -61 -99 0
-9 35 19 79 63 51 50 81 74 86 66 21 -34 -187 -239 -270 -265 -119 -39 -996
-513 -1035 -561 -17 -19 2 -19 41 2 17 8 33 13 35 11 16 -16 -375 -181 -666
-282 -148 -51 -623 -181 -699 -191 -28 -4 -51 -2 -54 4 -4 5 16 28 43 51 60
51 64 66 12 58 -210 -32 -260 -41 -276 -53 -11 -8 -84 -34 -163 -59 -79 -25
-143 -50 -143 -55 0 -14 26 -12 137 9 163 31 173 33 173 22 0 -14 -56 -27
-165 -40 -93 -11 -371 -31 -431 -31 l-34 0 0 -54 c0 -72 13 -104 45 -111 14
-3 37 -8 52 -11 l28 -6 -24 -17 c-13 -10 -19 -21 -14 -24 5 -3 52 -11 104 -18
122 -14 130 -19 95 -54 l-28 -28 -129 6 -129 6 0 -111 0 -111 149 7 c93 4 151
3 155 -3 10 -16 -23 -41 -109 -80 -141 -65 -128 -72 78 -41 317 48 447 74 447
89 0 16 -44 20 -124 12 -98 -9 -134 -4 -147 21 -6 11 -8 22 -5 25 3 3 70 20
148 38 186 42 332 84 545 156 l173 60 217 9 c299 14 332 21 538 113 318 141
462 213 452 223 -2 3 -89 -18 -191 -45 -103 -27 -194 -47 -202 -44 -8 3 -14
16 -14 28 0 29 56 75 143 119 141 70 537 357 829 598 190 157 238 192 307 228
29 14 46 18 50 11 4 -7 26 2 59 24 28 19 53 35 56 35 2 0 7 -12 10 -27 19 -79
102 -347 128 -412 16 -40 27 -78 25 -84 -2 -6 -21 20 -43 58 -21 38 -44 70
-50 72 -7 2 19 -76 57 -174 37 -98 83 -229 101 -291 18 -61 36 -112 40 -112 7
0 5 25 -18 163 -8 48 -14 95 -14 105 0 9 25 -30 56 -88 123 -231 196 -338 324
-475 117 -126 123 -133 116 -144 -10 -16 -118 22 -248 87 -5 2 -8 -3 -8 -11 0
-26 342 -251 429 -282 82 -28 82 -15 2 49 -67 54 -76 69 -56 89 11 12 30 9
127 -19 110 -32 118 -33 298 -33 189 0 413 12 463 24 25 7 27 5 27 -26 0 -29
-9 -43 -67 -96 -38 -33 -65 -64 -62 -68 9 -9 339 125 471 191 99 50 127 69
116 80 -3 2 -62 -16 -132 -41 -141 -50 -171 -54 -179 -26 -8 31 9 47 111 104
279 158 532 353 846 651 149 141 224 206 239 206 22 0 -2 -49 -85 -170 -132
-195 -160 -240 -149 -240 5 0 83 82 173 183 227 255 380 421 388 425 12 5 266
-365 258 -374 -4 -3 -32 29 -64 70 -31 42 -59 74 -62 71 -8 -7 52 -117 117
-214 75 -110 231 -311 242 -311 15 0 11 10 -44 99 -82 131 -99 161 -93 161 3
0 74 -66 158 -146 242 -231 331 -295 589 -425 107 -53 140 -74 137 -87 -3 -15
-20 -17 -136 -20 -72 -1 -132 -6 -132 -11 0 -9 105 -42 233 -72 50 -11 139
-35 197 -51 142 -42 169 -47 175 -38 3 5 -11 18 -30 30 -20 12 -42 35 -50 50
-14 26 -13 28 8 34 12 3 81 6 153 6 170 0 263 17 466 85 l166 55 143 0 144 1
165 120 c91 66 169 124 174 129 26 26 -12 16 -117 -30 -132 -57 -159 -63 -165
-37 -2 12 57 77 191 210 107 105 261 270 342 365 81 94 151 172 155 172 5 0
35 -29 67 -64 69 -76 157 -186 148 -186 -4 0 -48 34 -98 75 -145 118 -128 78
41 -96 58 -61 157 -156 220 -212 200 -179 229 -180 67 -4 -58 64 -105 118
-105 122 0 4 28 -19 63 -50 192 -174 401 -312 695 -457 133 -66 242 -124 242
-128 0 -5 -10 -21 -23 -36 -21 -24 -33 -28 -113 -35 -49 -4 -100 -8 -114 -8
-49 -2 -3 -19 90 -35 123 -21 465 -66 499 -66 46 0 8 19 -89 44 -95 25 -120
41 -120 79 0 22 6 21 175 -3 132 -19 811 -8 832 14 2 2 6 42 10 89 l6 85 -444
4 c-398 4 -448 6 -486 22 -43 18 -58 45 -25 47 9 1 74 0 145 -1 139 -2 163 9
75 34 -88 26 -520 118 -575 123 -52 5 -67 -3 -40 -25 6 -5 58 -29 115 -52 56
-24 105 -47 108 -52 31 -50 -153 6 -346 104 -296 152 -666 425 -627 464 2 2
44 -28 93 -67 102 -82 124 -95 124 -77 0 6 -87 100 -194 207 l-194 196 140
235 c77 129 191 323 253 430 l113 195 149 -4 c81 -2 154 -8 161 -13 6 -6 12
-32 12 -59 0 -55 17 -75 26 -29 9 40 16 44 97 45 71 2 97 -10 97 -41 0 -23 29
-74 42 -74 7 0 9 17 4 54 -7 65 -6 66 109 68 l77 2 44 -47 c29 -32 52 -47 69
-47 20 0 30 -10 49 -48 28 -55 184 -317 223 -375 14 -20 28 -35 30 -33 3 2
-21 62 -52 131 -31 70 -54 129 -52 131 2 3 44 -49 93 -113 191 -252 435 -526
546 -615 l40 -31 -4 99 -3 100 -139 134 c-225 218 -476 523 -451 548 4 4 30
-20 58 -53 90 -103 125 -140 131 -134 3 3 -42 81 -100 173 -59 92 -104 170
-100 173 6 6 74 0 470 -38 101 -10 111 -10 123 7 7 10 13 30 13 45 l0 26 -122
7 c-68 4 -217 12 -332 19 l-210 12 -40 51 c-85 107 -97 120 -92 99 19 -77 19
-78 5 -73 -29 9 -156 291 -264 584 -56 152 -100 302 -91 311 3 3 8 0 11 -8 2
-8 21 -61 41 -119 40 -118 60 -151 49 -80 -11 70 -92 432 -127 565 l-31 120 6
195 c4 107 16 267 27 355 23 183 24 203 11 190 -8 -8 -101 -332 -101 -351 0
-2 -4 -4 -9 -4 -18 0 -23 134 -7 191 8 30 22 126 31 214 16 172 29 468 19 447
-3 -7 -14 -56 -24 -110 -17 -93 -18 -95 -19 -42 -1 87 33 299 93 568 53 235
106 435 120 449 19 19 14 -19 -17 -136 -19 -72 -32 -131 -28 -131 4 0 12 12
18 28 120 300 214 545 210 548 -2 3 -28 -36 -58 -86 -82 -139 -88 -110 -10 54
69 147 245 435 339 551 42 52 114 126 119 121 11 -10 -12 -52 -73 -131 -36
-47 -61 -85 -56 -85 14 0 247 216 261 243 12 22 12 31 1 58 -13 32 -13 33 26
66 44 39 167 115 262 162 l62 31 0 71 c0 68 -1 70 -22 63 -62 -19 -231 -120
-337 -200 -50 -39 -78 -45 -61 -15 5 11 37 54 71 96 33 42 59 79 56 81 -8 9
-357 -321 -357 -338 0 -4 28 10 61 32 100 65 100 38 0 -78 -161 -187 -268
-351 -393 -602 -48 -96 -88 -170 -88 -164 0 7 17 66 39 133 21 66 35 118 31
116 -16 -10 -193 -452 -214 -535 -4 -14 15 16 40 65 26 50 49 85 51 80 2 -6
-15 -71 -37 -145 -88 -296 -158 -616 -186 -860 l-8 -65 -12 130 c-21 226 -63
582 -94 809 -33 233 -35 281 -10 281 11 0 34 -57 80 -195 36 -107 66 -186 68
-175 3 22 -166 976 -174 985 -3 3 -3 -80 1 -185 7 -192 0 -252 -28 -243 -29
10 -76 215 -157 693 -81 482 -142 757 -217 990 -34 104 -35 116 -30 207 5 93
4 99 -22 140 -32 50 -61 78 -61 58 0 -7 5 -30 12 -52 10 -33 9 -41 -5 -55 -14
-14 -19 -14 -59 0 -194 71 -188 70 -285 65 -54 -3 -93 -1 -93 4 0 18 21 49 29
43 5 -2 13 1 19 8 18 21 32 66 23 72 -5 2 -43 -18 -85 -45z m227 -254 c103
-37 193 -164 148 -209 -8 -8 -16 -6 -31 8 -19 18 -20 18 -20 -1 0 -45 118
-274 141 -274 4 0 1 24 -8 53 -23 75 -30 110 -25 130 10 49 32 1 87 -193 49
-174 88 -368 144 -732 27 -172 66 -408 87 -525 21 -117 34 -216 30 -220 -15
-15 -35 30 -91 198 -55 165 -83 222 -70 142 30 -173 220 -972 236 -987 14 -15
11 18 -16 207 -35 238 -34 232 -25 246 12 21 27 -37 60 -233 72 -439 89 -643
97 -1136 6 -382 2 -489 -17 -520 -23 -38 -35 21 -60 300 -27 303 -43 94 -39
-507 2 -243 7 -445 12 -449 4 -4 10 -5 13 -2 3 3 12 84 20 179 16 187 24 231
41 236 20 7 22 -25 8 -163 -14 -154 -28 -215 -79 -355 -187 -515 -373 -923
-430 -943 -48 -18 -51 4 -12 94 58 130 24 117 -51 -19 -20 -36 -37 -67 -38
-68 -1 -2 -42 4 -91 12 -49 8 -152 19 -229 25 -105 8 -169 19 -264 45 -68 19
-126 37 -129 39 -2 3 3 33 12 68 18 74 20 98 6 98 -11 0 -40 -52 -40 -72 0 -7
-9 -32 -19 -55 l-19 -41 -39 13 c-25 9 -45 25 -58 48 -11 19 -32 50 -47 68
l-27 34 6 -38 c10 -63 -13 -42 -45 40 -57 150 -216 686 -209 707 2 6 9 -11 16
-38 6 -27 15 -46 18 -42 7 7 -4 77 -63 416 -47 274 -67 360 -59 255 22 -299 9
-267 -31 75 -23 195 -28 276 -28 475 0 203 17 548 39 805 8 86 -2 72 -20 -30
-15 -84 -32 -129 -21 -55 3 22 10 94 16 160 25 277 64 496 161 894 38 157 68
290 66 295 -2 6 -12 -16 -22 -49 -10 -33 -20 -54 -22 -48 -13 35 238 833 261
833 3 0 -10 -45 -29 -100 -19 -55 -31 -100 -29 -100 12 0 218 459 210 467 -2
2 -21 -23 -41 -57 -20 -34 -40 -59 -43 -56 -9 10 84 191 158 308 73 114 198
271 225 282 32 12 13 -32 -41 -97 -30 -37 -50 -67 -43 -67 23 0 249 136 249
150 0 3 -18 4 -41 2 l-40 -4 3 33 c2 24 10 37 28 46 33 17 155 16 203 -1z
m-3009 -172 c9 -3 16 -15 16 -27 0 -32 -29 -57 -69 -58 -20 0 -45 -4 -56 -8
-19 -8 -19 -8 0 -18 33 -17 164 -46 180 -39 11 4 14 19 13 56 -3 62 9 76 51
62 97 -34 251 -174 345 -315 73 -109 128 -234 124 -279 -5 -51 -27 -41 -87 39
-31 40 -57 70 -59 68 -4 -3 49 -138 121 -307 64 -148 130 -283 134 -271 2 6
-10 59 -27 118 -30 107 -39 205 -20 205 21 0 62 -133 104 -340 57 -283 61
-326 61 -650 0 -311 -11 -436 -40 -460 -23 -19 -27 21 -14 174 12 153 9 197
-9 131 -42 -151 -82 -548 -82 -810 0 -167 14 -214 24 -82 23 278 47 409 72
384 22 -21 -42 -483 -97 -701 -126 -503 -362 -1219 -406 -1234 -22 -7 -15 29
47 247 33 116 60 219 60 228 0 44 -33 -29 -125 -277 -117 -315 -135 -359 -164
-385 -22 -19 -24 -19 -69 -2 -26 10 -56 21 -67 24 -41 13 4 -23 71 -58 66 -33
66 -33 110 -17 41 15 44 14 44 -2 0 -59 -299 -704 -365 -786 -21 -26 -30 -29
-106 -35 -140 -12 -273 -10 -355 6 -44 8 -121 18 -172 22 l-94 8 -36 98 c-20
53 -39 97 -44 97 -4 0 -5 -7 -2 -15 4 -8 3 -23 0 -32 -6 -15 -8 -15 -17 -3
-33 51 -167 531 -234 837 -38 174 -40 187 -26 179 5 -3 23 -65 41 -138 18 -73
37 -137 42 -143 6 -6 7 -1 4 15 -3 14 -13 70 -22 125 -33 212 -106 610 -111
615 -3 3 -3 -20 0 -50 12 -104 17 -258 8 -215 -33 151 -62 632 -59 995 2 220
3 235 8 110 6 -179 10 -157 45 260 14 162 28 309 31 325 4 20 3 27 -4 20 -6
-5 -19 -59 -30 -120 -39 -217 -19 34 28 340 33 215 66 373 95 450 46 121 194
565 189 565 -7 0 -74 -142 -74 -157 0 -7 -5 -13 -10 -13 -14 0 -5 33 48 175
100 270 358 752 387 723 14 -14 -5 -56 -61 -132 -31 -42 -54 -79 -52 -82 3 -2
76 68 162 157 87 88 155 163 153 166 -3 2 -29 -11 -59 -31 -62 -42 -68 -43
-68 -12 0 40 91 120 219 193 123 70 292 111 355 87z m-3001 -176 c42 -46 78
-128 83 -195 l6 -58 -31 35 c-17 19 -31 32 -31 27 0 -11 136 -279 154 -302 10
-12 5 10 -13 60 -15 44 -31 94 -35 110 -7 27 -6 28 8 15 20 -21 115 -189 191
-341 86 -170 153 -329 170 -403 16 -68 20 -176 6 -176 -5 0 -35 51 -67 112
-31 62 -59 108 -61 103 -1 -6 10 -55 26 -110 15 -55 24 -101 20 -103 -5 -2
-53 12 -108 32 -187 66 -402 116 -589 137 -144 15 -163 28 -126 84 9 13 13 28
10 33 -16 26 113 520 169 648 13 28 48 88 79 132 31 44 56 82 56 86 0 3 -7 6
-15 6 -22 0 -19 43 6 74 27 35 55 33 92 -6z m-123 12 c0 -5 -5 -10 -11 -10 -5
0 -7 5 -4 10 3 6 8 10 11 10 2 0 4 -4 4 -10z m719 -835 c68 -80 96 -137 81
-165 -15 -28 -44 -22 -49 10 -1 14 -12 37 -22 52 -24 34 -82 171 -70 166 5 -2
32 -30 60 -63z m7271 -105 c0 -5 -4 -10 -10 -10 -5 0 -10 5 -10 10 0 6 5 10
10 10 6 0 10 -4 10 -10z m-8350 -75 c0 -23 -34 -35 -105 -35 -78 0 -85 18 -14
37 65 17 119 16 119 -2z m5427 -67 c-3 -8 -6 -5 -6 6 -1 11 2 17 5 13 3 -3 4
-12 1 -19z m-5483 -87 c10 -9 14 -22 10 -40 -10 -47 -26 -81 -38 -81 -16 0
-126 66 -150 90 -11 11 -16 25 -12 35 5 15 18 17 90 13 48 -2 91 -10 100 -17z
m1328 -63 c22 -42 38 -84 36 -92 -4 -22 -110 53 -122 87 -12 32 10 89 32 85 8
-2 33 -38 54 -80z m-1027 41 c161 -29 513 -118 565 -143 25 -11 45 -28 45 -36
0 -25 -49 -23 -146 5 -50 14 -93 24 -96 21 -2 -2 60 -38 139 -79 79 -41 172
-90 207 -108 l64 -34 34 -95 c19 -52 38 -99 43 -104 13 -13 12 -4 -9 87 -18
75 -18 77 0 77 56 0 77 -113 91 -488 18 -473 -2 -639 -103 -878 -63 -151 -125
-338 -149 -454 -39 -188 -48 -215 -141 -410 -50 -107 -97 -210 -104 -230 -7
-20 -31 -60 -52 -89 -44 -58 -116 -183 -128 -221 -4 -14 -24 -41 -45 -62 -20
-20 -66 -76 -101 -125 -123 -171 -334 -433 -349 -433 -13 0 -18 51 -9 85 5 19
28 61 50 95 23 33 39 64 35 67 -7 8 -57 -46 -169 -184 l-91 -113 -171 0 -172
0 -1 73 c-1 94 -11 218 -19 237 -4 9 -9 0 -14 -25 -4 -22 -6 109 -4 290 4 342
5 359 64 775 17 118 39 296 50 395 32 288 110 666 225 1087 63 231 109 415
126 503 19 99 72 298 86 327 8 15 14 42 14 60 0 33 22 127 34 146 7 12 50 8
201 -19z m745 -282 c0 -29 0 -30 -20 -12 -20 18 -26 46 -13 58 12 13 33 -16
33 -46z m97 -9 c22 -24 49 -96 39 -105 -19 -20 -64 35 -73 91 -7 41 4 46 34
14z m289 -230 c144 -154 262 -328 267 -395 2 -24 -2 -28 -25 -31 -23 -3 -36 8
-89 72 -34 42 -63 76 -65 76 -13 0 204 -530 217 -530 3 0 -3 46 -13 103 -23
126 -21 161 9 165 27 4 38 -16 58 -100 27 -118 36 -212 36 -374 -1 -177 -16
-305 -56 -459 -34 -129 -71 -200 -105 -200 -23 0 -25 3 -21 45 1 25 12 90 22
144 32 172 18 147 -90 -157 -85 -236 -148 -434 -156 -484 -4 -28 15 2 69 111
42 81 81 154 87 162 11 14 59 20 59 8 0 -15 -122 -259 -175 -349 -170 -291
-373 -563 -575 -772 -149 -153 -250 -232 -250 -195 0 14 50 80 154 201 173
203 117 158 -288 -231 -212 -204 -229 -215 -271 -184 -23 16 -30 4 125 221
240 338 357 522 520 819 57 104 106 184 108 178 8 -24 22 0 22 36 0 35 39 137
150 399 24 56 46 101 48 99 7 -8 -39 -345 -53 -394 -17 -56 -18 -65 -5 -57 13
8 50 136 89 305 18 74 59 227 93 340 l61 205 3 175 3 175 -18 -135 c-23 -170
-34 -223 -62 -285 -36 -79 -34 -31 7 186 36 190 37 200 41 484 3 225 0 337
-14 498 -14 155 -16 207 -7 207 7 0 47 -37 90 -82z m584 -510 c73 -92 74 -93
66 -273 -3 -88 -8 -191 -11 -230 -4 -48 -2 -64 4 -50 5 11 10 40 11 65 2 25 6
59 11 75 5 17 6 -84 3 -239 l-4 -269 -61 -101 c-72 -120 -95 -146 -126 -146
-30 0 -29 9 3 151 83 367 93 647 34 937 -17 81 -19 106 -10 118 21 24 38 16
80 -38z m-871 -910 c1 -35 -47 -188 -60 -188 -5 0 -15 12 -21 26 -11 23 -8 33
20 85 18 31 32 71 32 87 0 17 3 39 7 49 6 16 8 15 14 -7 4 -14 7 -37 8 -52z
m971 -353 c6 -82 18 -208 26 -278 8 -70 14 -133 11 -140 -2 -7 -15 44 -28 113
-52 269 -26 21 43 -407 33 -205 53 -262 31 -90 -23 192 -12 184 32 -23 64
-308 132 -572 196 -768 33 -100 33 -136 -2 -147 -28 -9 -159 5 -159 16 0 5 14
37 31 70 17 34 28 63 25 66 -12 12 -37 -9 -57 -49 -12 -24 -30 -55 -41 -70
-18 -26 -20 -26 -53 -12 -19 8 -42 14 -51 14 -9 0 -39 13 -66 30 -78 48 -93
36 -30 -26 l37 -37 -85 6 c-47 4 -116 11 -155 17 -38 5 -232 12 -430 15 -336
6 -542 21 -583 44 -9 5 48 67 175 192 174 170 259 260 223 233 -8 -6 -79 -61
-157 -123 -78 -61 -155 -118 -170 -126 -36 -19 -63 -19 -63 -1 0 8 57 79 128
158 354 397 537 654 774 1087 82 150 118 199 137 187 17 -11 14 -51 -14 -186
-14 -68 -23 -125 -21 -127 2 -2 13 20 26 49 46 110 208 505 226 553 l19 50 7
-70 c3 -38 11 -137 18 -220z m-1070 101 c0 -3 -4 -8 -10 -11 -5 -3 -10 -1 -10
4 0 6 5 11 10 11 6 0 10 -2 10 -4z m-1580 -366 c0 -5 -2 -10 -4 -10 -3 0 -8 5
-11 10 -3 6 -1 10 4 10 6 0 11 -4 11 -10z m8129 -600 c0 -30 -1 -32 -11 -16
-6 10 -12 60 -14 110 l-3 91 14 -75 c7 -41 14 -91 14 -110z m-115 39 c10 -50
15 -93 13 -96 -4 -4 -17 49 -42 170 -2 9 0 17 4 17 4 0 15 -41 25 -91z m-2030
0 l5 -54 -13 50 c-8 28 -14 59 -15 70 -1 43 18 -11 23 -66z m2015 -141 c46
-210 94 -398 101 -398 4 0 1 37 -6 83 -8 45 -16 105 -19 132 l-5 50 15 -50 c9
-27 31 -104 51 -170 51 -171 124 -363 211 -552 41 -91 72 -167 69 -171 -7 -6
-87 11 -229 50 l-79 21 6 31 c20 97 20 108 0 104 -12 -2 -27 -23 -41 -58 -12
-30 -28 -59 -36 -64 -22 -14 -65 18 -69 51 -5 48 -33 35 -36 -17 -4 -59 -20
-70 -106 -70 -114 0 -366 31 -366 45 0 1 21 47 46 101 25 55 93 205 151 334
115 259 304 650 313 650 3 0 16 -46 29 -102z m-10774 -278 c3 -5 -1 -10 -9
-10 -8 0 -18 5 -21 10 -3 6 1 10 9 10 8 0 18 -4 21 -10z m1195 -170 c0 -5 -7
-10 -16 -10 -8 0 -12 5 -9 10 3 6 10 10 16 10 5 0 9 -4 9 -10z m2119 -157
c-10 -26 -46 -31 -55 -8 -3 8 7 35 22 60 l29 45 6 -37 c4 -21 3 -48 -2 -60z
m481 16 c0 -34 -57 -83 -84 -73 -25 10 -19 21 27 53 46 33 57 37 57 20z m-797
-70 c103 -15 107 -19 74 -66 -47 -65 -179 -223 -187 -223 -5 0 -11 28 -14 63
-13 155 -16 218 -11 227 8 13 47 13 138 -1z m247 -31 c0 -15 -67 -88 -81 -88
-19 0 -8 48 17 74 28 27 64 35 64 14z m247 -86 l-47 -47 0 35 c0 45 16 72 29
51 8 -13 13 -12 33 1 40 28 34 9 -15 -40z m147 40 c3 -5 -12 -24 -32 -44 -47
-44 -188 -158 -196 -158 -16 0 28 61 81 111 94 91 132 114 147 91z m-258 -96
c-14 -31 -35 -70 -46 -86 -24 -34 -60 -40 -60 -11 0 29 121 183 128 163 1 -5
-8 -35 -22 -66z m524 65 c0 -10 -101 -100 -194 -172 -31 -24 -56 -47 -56 -51
0 -12 158 88 258 161 l86 64 131 -6 c71 -4 189 -14 260 -23 91 -11 168 -13
255 -9 77 4 212 0 350 -9 291 -20 312 -23 378 -54 48 -21 59 -23 87 -13 66 24
78 13 90 -83 8 -70 14 -88 26 -80 5 3 9 37 9 75 0 96 8 109 71 109 49 0 50 -1
47 -27 -3 -23 1 -28 29 -34 18 -3 40 -12 49 -20 23 -19 71 -120 149 -313 38
-93 71 -164 72 -159 2 6 -15 68 -37 138 -23 70 -40 129 -37 131 2 2 38 -70 80
-160 l75 -165 -106 -133 c-136 -171 -340 -445 -358 -480 -27 -53 4 -28 95 76
51 58 108 116 127 131 33 25 34 25 34 5 0 -42 -330 -376 -539 -545 -179 -145
-505 -345 -561 -345 -43 0 8 59 126 146 64 47 114 88 111 90 -9 9 -117 -38
-333 -145 -278 -137 -308 -166 -132 -120 44 11 82 18 85 15 3 -2 2 -14 -2 -25
-8 -27 -51 -49 -150 -76 l-79 -22 -44 34 c-64 49 -108 46 -169 -9 -41 -39 -50
-43 -92 -41 -25 1 -83 9 -127 19 l-81 17 4 42 c7 55 -15 96 -71 134 -64 44
-256 144 -263 137 -3 -3 22 -37 55 -75 63 -70 79 -111 43 -111 -31 0 -219 206
-333 367 -104 146 -205 328 -196 355 3 7 28 -23 57 -66 29 -43 55 -76 57 -73
3 3 -41 119 -97 258 -55 140 -103 260 -106 267 -3 6 -9 12 -13 12 -4 0 3 -50
16 -112 14 -62 23 -119 21 -128 -6 -27 -127 367 -127 414 0 8 122 103 310 241
96 70 256 191 355 269 99 78 194 152 210 164 30 21 95 30 95 13z m-1073 -73
c-3 -7 -5 -2 -5 12 0 14 2 19 5 13 2 -7 2 -19 0 -25z m3268 -29 c22 -6 140
-14 262 -18 122 -3 225 -9 229 -13 6 -7 -294 -469 -359 -552 -28 -36 -31 -37
-44 -20 -21 29 -15 55 27 118 22 33 37 62 35 65 -3 3 -25 -15 -49 -38 -26 -26
-50 -41 -59 -38 -21 8 -167 337 -149 337 4 0 31 -48 60 -106 29 -59 55 -104
58 -101 5 5 -80 248 -116 331 l-19 46 42 0 c23 0 60 -5 82 -11z m3229 -40 c15
-13 -24 -23 -52 -13 -42 15 -39 34 5 27 21 -3 42 -9 47 -14z m-6481 -26 c4
-19 2 -33 -3 -33 -6 0 -10 17 -10 37 0 43 5 41 13 -4z m4197 11 c61 -10 119
-13 161 -9 l67 6 7 -73 c4 -40 11 -81 16 -90 18 -34 29 -18 29 42 0 45 3 60
14 60 8 0 18 9 21 20 5 15 12 19 26 15 11 -4 26 -2 34 5 9 7 80 10 227 9 276
-3 1170 10 1226 17 l42 6 0 -40 c0 -35 4 -42 36 -61 28 -17 44 -40 76 -109
110 -235 169 -355 173 -350 3 2 -15 60 -40 128 -25 68 -43 125 -41 127 2 2 41
-67 88 -154 46 -87 132 -234 192 -327 91 -143 106 -173 98 -190 -35 -74 -417
-480 -557 -592 -81 -66 -105 -76 -105 -47 0 19 22 49 129 172 127 146 113 143
-109 -30 -203 -158 -385 -328 -368 -344 2 -2 48 24 102 56 55 32 103 59 108
59 18 0 6 -43 -19 -67 -26 -24 -59 -41 -238 -123 -74 -34 -227 -65 -370 -76
-86 -7 -316 10 -364 27 -30 10 -46 33 -35 50 3 5 59 9 125 9 66 0 119 4 119 9
0 12 -63 32 -235 75 -236 59 -328 77 -337 68 -5 -5 21 -25 64 -47 126 -65 165
-105 104 -105 -56 0 -351 165 -491 275 -157 123 -345 309 -345 341 0 20 8 15
103 -64 43 -35 80 -62 82 -60 10 9 -384 488 -408 497 -6 2 0 -14 12 -35 78
-131 123 -216 117 -221 -13 -13 -50 36 -135 177 l-87 146 30 37 c38 47 30 55
-16 17 l-36 -30 -28 47 c-15 26 -27 52 -27 58 0 5 49 78 109 162 93 130 207
304 325 496 l29 47 103 0 c56 0 145 -7 197 -16z m-4064 -73 c-8 -15 -36 -49
-63 -76 -45 -46 -48 -48 -51 -26 -3 18 11 38 54 82 59 60 85 69 60 20z m6233
7 c15 -43 21 -78 13 -78 -9 0 -32 59 -32 83 0 24 9 21 19 -5z m356 7 c50 -9
148 -18 218 -22 70 -3 130 -10 133 -15 3 -5 -35 -82 -84 -171 -50 -89 -124
-227 -165 -307 -123 -237 -116 -251 23 -47 104 153 115 167 125 167 12 0 -2
-41 -34 -100 -50 -93 -186 -285 -201 -285 -22 0 -355 522 -395 618 -29 70 2
36 71 -78 69 -115 99 -149 68 -77 -69 160 -70 164 -66 242 2 41 9 78 16 82 19
13 197 8 291 -7z m-535 -49 c0 -6 -7 -2 -15 8 -8 11 -15 25 -15 30 0 6 7 2 15
-8 8 -11 15 -25 15 -30z m995 -16 c12 -20 -85 -173 -101 -158 -8 8 31 135 48
155 12 15 44 17 53 3z m263 -28 c-9 -22 -134 -197 -169 -236 -80 -91 -80 -44
1 122 l59 122 56 0 c31 0 55 -4 53 -8z m662 -2 c24 -7 23 -7 -12 -15 -41 -8
-68 -2 -68 15 0 11 42 12 80 0z m-7850 -74 c0 -16 -120 -100 -129 -90 -8 8 97
104 115 104 8 0 14 -6 14 -14z m8290 -16 c0 -5 -4 -10 -10 -10 -5 0 -10 5 -10
10 0 6 5 10 10 10 6 0 10 -4 10 -10z m-110 -47 c33 -52 39 -73 14 -52 -14 11
-54 81 -54 94 0 14 13 1 40 -42z m-8825 -314 c-52 -53 -149 -117 -255 -168
-140 -68 -146 -49 -11 38 73 47 291 171 301 171 2 0 -14 -18 -35 -41z m3665
-34 c0 -34 -99 -149 -115 -133 -6 6 42 96 72 136 26 35 43 34 43 -3z m3830 14
c0 -42 -140 -359 -159 -359 -5 0 -23 12 -40 26 -62 52 -27 -19 81 -163 36 -49
31 -69 -8 -32 -33 30 -154 175 -154 183 0 4 48 75 106 159 140 200 174 236
174 186z m-3710 -236 c0 -11 -79 -92 -117 -118 -17 -12 -23 -12 -32 -2 -13 16
24 90 77 156 l35 43 18 -33 c10 -19 18 -39 19 -46z m-4375 -73 c-10 -16 -126
-72 -133 -65 -9 9 23 32 83 61 49 23 63 25 50 4z m-136 -224 c-2 -2 -60 -37
-129 -76 -214 -123 -240 -133 -240 -95 0 22 31 38 201 110 139 58 181 73 168
61z m-562 -263 c12 -30 -62 -79 -245 -161 -403 -182 -732 -293 -997 -336 -149
-24 -184 -26 -191 -14 -14 22 45 55 181 103 121 43 138 52 147 76 13 37 61 56
329 129 123 33 305 86 404 117 376 117 362 114 372 86z m19 -278 c17 -43 -55
-83 -201 -114 -100 -21 -288 -52 -292 -47 -8 8 438 173 475 175 7 1 15 -6 18
-14z m-1146 -13 c0 -9 -44 -32 -58 -32 -10 1 38 40 49 40 5 0 9 -4 9 -8z
m-250 -41 c0 -29 -36 -36 -204 -38 -196 -3 -186 9 24 27 74 7 137 14 139 16 8
8 41 4 41 -5z m4070 -162 c0 -22 -12 -30 -28 -20 -12 7 -17 31 -13 66 2 19 3
19 21 -4 11 -13 20 -31 20 -42z m4915 -8 c3 -5 0 -13 -6 -16 -16 -10 -112 -35
-117 -30 -5 5 89 54 105 55 6 0 14 -4 18 -9z"/>
<path d="M8590 6059 c0 -5 5 -7 10 -4 6 3 10 8 10 11 0 2 -4 4 -10 4 -5 0 -10
-5 -10 -11z"/>
<path d="M107 4423 c-68 -85 -107 -147 -107 -170 1 -24 35 18 96 116 25 41 53
85 61 98 30 46 3 22 -50 -44z"/>
</g>
</svg>
